<?xml version="1.0" encoding="utf-8"?>
<!-- Generator: Adobe Illustrator 26.5.0, SVG Export Plug-In . SVG Version: 6.00 Build 0)  -->
<svg version="1.1" id="Layer_1" xmlns="http://www.w3.org/2000/svg" xmlns:xlink="http://www.w3.org/1999/xlink" x="0px" y="0px"
	 viewBox="0 0 226.8 113.4" style="enable-background:new 0 0 226.8 113.4;" xml:space="preserve">
<style type="text/css">
	.st0{fill:#575756;}
	.st1{fill:#64B445;}
</style>
<g>
	<path class="st0" d="M183.4,68.3h4.7c5.1,0,8.9,3,8.9,8.3s-3.8,8.3-8.9,8.3h-4.7V68.3z M200.1,76.6c0-6.7-4.7-11.1-11.8-11.1h-7.9
		v22.2h7.9C195.4,87.7,200.1,83.3,200.1,76.6 M163.6,88.2c6,0,9.5-4.1,9.5-9.8V65.5H170v12.9c0,4-2.1,6.9-6.4,6.9
		c-4.3,0-6.4-3-6.4-6.9V65.5h-3v12.9C154.1,84.1,157.7,88.2,163.6,88.2 M145,73.1c0,3.2-2.3,4.7-5.5,4.7H133v-9.5h6.2
		C142.7,68.3,145,69.8,145,73.1 M139.2,65.5H130v22.2h3v-7.2h6.8l5.8,7.2h3.4v-0.6l-5.7-7.1v-0.1c3-1,5-3.4,5-6.9
		C148.2,68.1,144.8,65.5,139.2,65.5 M121.5,78.1v-2.7h-11.7v-7.1h13.4v-2.8h-16.5v22.2h16.5v-2.8h-13.4v-6.8
		C109.8,78.1,121.5,78.1,121.5,78.1z M85.7,87.7h15.7v-2.8H88.8V65.5h-3v22.2H85.7z M64.7,87.7h15.7v-2.8H67.7V65.5h-3V87.7z
		 M56.5,65.5h-3v22.2h3V65.5z M30.7,77.8h7.8c2.7,0.1,4.7,1.3,4.7,3.5c0,2.4-2.2,3.6-5,3.6h-7.5V77.8z M42.4,71.7
		c0,2.1-1.8,3.4-4.8,3.4h-6.9v-6.9h6.9C40.6,68.3,42.4,69.3,42.4,71.7 M46.3,81.5c0-2.6-1.7-4.3-4-5v-0.3c2-0.7,3.3-2.4,3.3-4.7
		c0-3.9-3-6-7.9-6h-10v22.2h10.4C43,87.7,46.3,85.6,46.3,81.5"/>
</g>
<path class="st1" d="M108.7,22c-2,0-3.6,1.6-3.6,3.6s1.6,3.6,3.6,3.6s3.6-1.6,3.6-3.6C112.3,23.6,110.7,22,108.7,22 M96.6,24.4
	c-1.8,0-3.2,1.4-3.2,3.2c0,1.8,1.4,3.2,3.2,3.2c1.8,0,3.2-1.4,3.2-3.2C99.8,25.9,98.3,24.4,96.6,24.4 M120.9,24.4
	c-1.8,0-3.2,1.4-3.2,3.2c0,1.8,1.4,3.2,3.2,3.2c1.8,0,3.2-1.4,3.2-3.2C124.1,25.9,122.7,24.4,120.9,24.4 M86.8,29.3
	c-1.6,0-2.8,1.3-2.8,2.8c0,1.6,1.3,2.8,2.8,2.8c1.6,0,2.8-1.3,2.8-2.8C89.7,30.6,88.4,29.3,86.8,29.3 M130.6,29.3
	c-1.6,0-2.8,1.3-2.8,2.8c0,1.6,1.3,2.8,2.8,2.8c1.6,0,2.8-1.3,2.8-2.8C133.5,30.6,132.2,29.3,130.6,29.3 M128.4,43.3
	c-1.2-2.1-1.2-4.8,0.2-6.9c0.1-0.1,0.1-0.2,0-0.3c-0.1-0.2-0.2-0.3-0.4-0.3c-0.1,0-0.2,0.1-0.2,0.2c-1,2.1-3.5,3-5.7,2.1
	s-3.2-3.4-2.4-5.6c0-0.1,0-0.2,0-0.3c-0.1-0.2-0.3-0.2-0.5-0.1c-0.1,0-0.1,0.1-0.2,0.2c-0.8,2.3-3.1,3.7-5.6,3.4s-4.3-2.4-4.5-4.8
	c0-0.2-0.2-0.3-0.4-0.3c-0.2,0-0.3,0.1-0.4,0.3c-0.2,2.4-2,4.5-4.5,4.8c-2.5,0.4-4.8-1.1-5.6-3.4c0-0.1-0.1-0.1-0.2-0.2
	c-0.2-0.1-0.4,0-0.5,0.1s-0.1,0.2,0,0.3c0.8,2.2-0.3,4.7-2.4,5.6c-2.2,0.9-4.7,0-5.7-2.1c0-0.1-0.1-0.2-0.2-0.2
	c-0.2-0.1-0.4,0.1-0.4,0.3c0,0.1,0,0.2,0,0.3c1.4,2.1,1.4,4.8,0.2,6.9c-0.1,0.1-0.1,0.3,0,0.4c0.1,0.1,0.2,0.2,0.4,0.1
	c2.4-0.5,5.3,3.5,7.7,7.3c0.3-0.2,0.7-0.4,1-0.6c-2.1-3.9-4.3-7.9-1.7-9.1c2.6-1.1,4,3.2,5.4,7.5c0.5-0.2,1-0.3,1.5-0.4
	c-1.1-4.3-2.2-8.8,0.9-9.2s3.3,4.2,3.5,8.6c0.3,0,0.6,0,1,0c0.3,0,0.6,0,1,0c0.2-4.4,0.4-9.1,3.5-8.6s2,4.9,0.9,9.2
	c0.5,0.1,1,0.3,1.5,0.4c1.4-4.2,2.8-8.6,5.4-7.4c2.6,1.1,0.4,5.2-1.7,9c0.3,0.2,0.7,0.4,1,0.6c2.3-3.8,5.3-7.8,7.6-7.3
	c0.1,0,0.3,0,0.4-0.1C128.5,43.5,128.5,43.4,128.4,43.3 M98.9,54.1L98,52.6c3.1-1.9,6.8-3,10.7-3c3.9,0,7.6,1.1,10.7,3l-0.9,1.4
	L98.9,54.1L98.9,54.1z"/>
</svg>
