<svg width="54" height="54" viewBox="0 0 54 54" fill="none" xmlns="http://www.w3.org/2000/svg">
<rect x="0.5" y="0.5" width="53" height="53" rx="4.5" fill="white"/>
<path d="M27 11C25.3432 11 24 12.3432 24 14V24H14C12.3432 24 11 25.3431 11 27C11 28.6568 12.3432 30 14 30H24V40C24 41.6569 25.3432 43 27 43C28.6569 43 30 41.6569 30 40V30H40C41.6568 30 43 28.6568 43 27C43 25.3431 41.6568 24 40 24H30V14C30 12.3432 28.6569 11 27 11Z" fill="#4B9200"/>
<path fill-rule="evenodd" clip-rule="evenodd" d="M14.1309 30H39.823C41.5727 30 43 28.6423 43 27.0219C43 25.3577 41.5727 24 39.823 24H14.1309C12.4273 24 11 25.3577 11 27.0219C11 28.6423 12.4273 30 14.1309 30Z" fill="#4B9200"/>
<rect x="0.5" y="0.5" width="53" height="53" rx="4.5" stroke="#4B9200"/>
</svg>
