<svg width="13" height="13" viewBox="0 0 13 13" fill="none" xmlns="http://www.w3.org/2000/svg">
<mask id="mask0_3_115" style="mask-type:alpha" maskUnits="userSpaceOnUse" x="0" y="0" width="13" height="13">
<g clip-path="url(#clip0_3_115)">
<path d="M9.34348 13C8.92384 13 8.50776 12.9258 8.10089 12.778C6.30843 12.1269 4.64465 11.0663 3.28936 9.71106C1.93406 8.35579 0.873539 6.69198 0.222423 4.89953C0.0131871 4.32349 -0.0485604 3.72887 0.0389575 3.13211C0.120941 2.57313 0.337463 2.03048 0.665141 1.56281C0.994266 1.09307 1.43305 0.702377 1.93404 0.432969C2.46828 0.145685 3.05141 0 3.66726 0C3.8588 0 4.02433 0.133829 4.06448 0.321102L4.70211 3.29674C4.73098 3.43148 4.68957 3.57168 4.59215 3.66912L3.5026 4.75864C4.53043 6.80215 6.19822 8.46994 8.24172 9.49776L9.33124 8.40822C9.42869 8.3108 9.56891 8.26944 9.70363 8.29826L12.6793 8.93589C12.8666 8.97603 13.0004 9.14157 13.0004 9.33311C13.0004 9.94896 12.8547 10.5321 12.5674 11.0664C12.298 11.5673 11.9073 12.0061 11.4375 12.3352C10.9699 12.6629 10.4272 12.8795 9.86823 12.9614C9.69307 12.9872 9.51793 13 9.34348 13ZM3.34268 0.830239C2.53034 0.919915 1.80932 1.3457 1.33053 2.02906C0.792114 2.79748 0.666563 3.7426 0.986065 4.62215C2.23787 8.06817 4.93224 10.7625 8.37827 12.0144C9.25779 12.3339 10.2029 12.2083 10.9714 11.6699C11.6547 11.1911 12.0805 10.4701 12.1702 9.65774L9.74951 9.13903L8.61165 10.2769C8.49057 10.398 8.30659 10.4301 8.15167 10.3573C5.73483 9.2219 3.77851 7.26558 2.64309 4.84875C2.5703 4.6938 2.60244 4.50982 2.72353 4.38877L3.86138 3.25091L3.34268 0.830239Z" fill="black"/>
</g>
</mask>
<g mask="url(#mask0_3_115)">
<rect x="-3" y="-3" width="18" height="19" fill="#383838"/>
</g>
<defs>
<clipPath id="clip0_3_115">
<rect width="13" height="13" fill="white"/>
</clipPath>
</defs>
</svg>
