<svg width="13" height="13" viewBox="0 0 13 13" fill="none" xmlns="http://www.w3.org/2000/svg">
<mask id="mask0_3_137" style="mask-type:alpha" maskUnits="userSpaceOnUse" x="0" y="0" width="13" height="13">
<path d="M10.4654 12.3141C10.3638 12.3141 10.263 12.2841 10.1764 12.2254L6.90774 10.0081L5.15458 11.2696C5.01708 11.3685 4.83986 11.3934 4.6802 11.3363C4.52075 11.2791 4.39965 11.147 4.35642 10.9832L3.47614 7.64723L0.330787 6.44454C0.132775 6.36879 0.00145281 6.17936 1.19732e-05 5.96735C-0.00142887 5.75534 0.127286 5.56412 0.324338 5.48569L12.2841 0.72681C12.3384 0.703757 12.3958 0.690446 12.4537 0.686879C12.4744 0.685644 12.4952 0.685644 12.5159 0.68681C12.6358 0.693946 12.7536 0.742797 12.8456 0.832952C12.8551 0.842283 12.8642 0.85182 12.8727 0.861769C12.9489 0.948768 12.9907 1.05484 12.9986 1.1629C13.0006 1.19007 13.0004 1.21759 12.998 1.2451C12.9964 1.26472 12.9936 1.28428 12.9896 1.30369L10.9708 11.8958C10.9384 12.066 10.8226 12.2084 10.6626 12.2748C10.5991 12.3011 10.5321 12.3141 10.4654 12.3141ZM7.19474 8.95921L10.1064 10.9342L11.6772 2.69232L6.00392 8.15145L7.18101 8.94995C7.18575 8.9529 7.19028 8.95606 7.19474 8.95921ZM4.7709 8.52003L5.16075 9.99723L6.00069 9.39284L4.90085 8.64676C4.84974 8.61218 4.80596 8.56909 4.7709 8.52003ZM1.93046 5.95424L4.09021 6.77998C4.24493 6.83912 4.3617 6.96921 4.40397 7.12935L4.67787 8.16737C4.69042 8.04764 4.74469 7.93498 4.83286 7.85011L10.2387 2.64841L1.93046 5.95424Z" fill="black"/>
</mask>
<g mask="url(#mask0_3_137)">
<rect x="-2" y="-3" width="16" height="17" fill="#383838"/>
</g>
</svg>
