<svg width="87" height="96" viewBox="0 0 87 96" fill="none" xmlns="http://www.w3.org/2000/svg">
<path d="M39.9738 5.26397C39.6244 4.93634 39.2749 4.69607 38.9472 4.52134C38.6196 4.36844 38.2483 4.28107 37.8333 4.28107C37.3528 4.28107 37.0033 4.39028 36.763 4.58686C36.5228 4.78344 36.3917 5.11108 36.3917 5.54792C36.3917 5.85371 36.5228 6.13766 36.7849 6.33424C37.047 6.55266 37.3528 6.74924 37.7459 6.94582C38.1391 7.1424 38.5541 7.33898 38.9909 7.5574C39.4278 7.77582 39.8428 8.01609 40.2359 8.32188C40.6291 8.62767 40.9349 8.97715 41.197 9.41399C41.4591 9.85083 41.5902 10.375 41.5902 10.9866C41.5902 11.9258 41.3281 12.734 40.8257 13.4111C40.3233 14.0882 39.537 14.5251 38.5322 14.7653V16.8185H36.632V14.8527C36.0641 14.7872 35.4525 14.6343 34.8191 14.3722C34.1856 14.1101 33.6396 13.7824 33.1809 13.3674L34.4478 11.4235C34.9501 11.7948 35.4307 12.0787 35.8675 12.2753C36.3262 12.4719 36.7849 12.5593 37.2436 12.5593C37.7896 12.5593 38.2046 12.4501 38.4449 12.2316C38.707 12.0132 38.838 11.6637 38.838 11.2051C38.838 10.8556 38.707 10.5716 38.4449 10.3314C38.1828 10.0911 37.877 9.87268 37.4838 9.65425C37.0907 9.43583 36.6757 9.21741 36.2388 8.99899C35.802 8.78057 35.387 8.51846 34.9938 8.21267C34.6007 7.90688 34.2949 7.5574 34.0328 7.1424C33.7706 6.7274 33.6396 6.24687 33.6396 5.65713C33.6396 4.69607 33.9017 3.88791 34.4259 3.25449C34.9501 2.62106 35.6928 2.20606 36.6101 2.03132V0H38.5104V1.98764C39.1438 2.07501 39.6899 2.27159 40.1704 2.55554C40.6509 2.83949 41.0659 3.18896 41.4591 3.60396L39.9738 5.26397Z" fill="#333B41"/>
<path fill-rule="evenodd" clip-rule="evenodd" d="M87 76.0006L83.4063 73.7891L75.3895 88.164L79.2597 90.0991L87 76.0006Z" fill="#333B41"/>
<path fill-rule="evenodd" clip-rule="evenodd" d="M81.4707 73.2357C72.0717 62.4546 63.7785 65.219 52.7209 72.4064C43.0454 78.7646 35.858 74.3415 28.6705 77.3824C27.0119 78.2117 24.5239 80.1468 26.7354 82.0819C27.8412 82.9112 32.2642 83.7405 33.6464 83.4641C41.1103 81.8054 43.3219 85.1227 54.6559 82.9112C51.3387 85.3991 40.5575 83.7405 33.9229 84.5698C28.6705 85.6756 20.1008 81.529 27.0119 76.8295C23.971 75.4473 21.2066 74.6179 17.8893 74.3415C14.572 71.8535 9.31965 68.8127 6.55525 67.7069C4.34372 66.3247 -1.1851 66.8776 2.40863 70.4713C6.00236 73.7886 15.6778 81.2525 17.6129 82.3583C25.3532 87.0578 32.5407 90.3751 40.0046 94.5217C40.0046 94.5217 42.4926 95.9039 47.4685 93.9688C51.0622 92.3102 67.0958 83.4641 70.966 84.8463C73.1775 85.6756 74.2832 86.2285 74.2832 86.2285L81.4707 73.2357Z" stroke="#333B41" stroke-width="1.5"/>
<path fill-rule="evenodd" clip-rule="evenodd" d="M34.7528 72.4065C35.3057 71.3008 35.8586 70.4714 36.6879 70.195C37.5172 69.9186 37.7937 70.4714 38.3465 71.0243C38.8994 71.8536 39.1759 72.1301 40.0052 72.683C40.2816 72.9594 40.8345 72.9594 41.1109 72.9594L40.5581 72.683C39.7287 72.1301 39.1759 71.5772 39.4523 70.4714C39.4523 70.195 39.1759 69.6421 39.7287 69.6421C40.2816 69.9186 41.1109 70.4714 41.9403 70.4714C41.9403 70.4714 42.7696 70.7479 42.4931 70.4714C42.4931 70.195 41.9403 69.9186 41.6638 69.6421C40.0052 68.2599 40.0052 67.9835 40.0052 66.0484C40.2816 63.284 39.1759 61.0725 37.2408 59.1374C32.8177 54.7143 34.7528 48.6326 38.0701 42.8274C41.1109 37.575 43.8753 36.7457 40.8345 30.3875C39.7287 27.6231 37.7937 24.8587 37.5172 23.2001C37.5172 22.6472 37.5172 22.9236 37.5172 23.2001C37.2408 24.8587 38.3465 27.3467 39.4523 29.8346C41.9403 35.3635 41.3874 35.9163 37.7937 40.8923C33.9235 45.8682 31.1591 51.1206 32.8177 56.6494C33.9235 60.5196 39.4523 64.3897 36.6879 66.8777C35.3057 67.9835 33.3706 70.7479 33.0942 72.4065C32.8177 73.2358 32.8177 73.2358 32.5413 73.7887C32.2648 74.0652 32.5413 74.0652 32.8177 74.0652C34.1999 73.7887 34.1999 73.2358 34.7528 72.4065Z" fill="#333B41"/>
<path d="M53.068 46.5295L53.9801 46.2689L54.0232 47.2166C54.171 50.4688 52.7785 54.3669 50.4893 57.443C49.3023 59.0379 47.8405 60.455 46.1798 61.4492C47.2729 61.0745 48.4759 60.3843 49.693 59.17C52.9277 55.6797 53.8196 51.2424 54.8558 45.5541C53.8903 45.6407 52.939 45.8569 51.9621 46.1397C51.3211 46.3252 50.6773 46.5369 50.0111 46.7575C49.9707 46.7709 49.9303 46.7843 49.8898 46.7977C49.2724 47.0022 48.6358 47.2132 47.983 47.4094C42.8544 49.3026 40.0789 51.66 39.0705 54.365C38.8202 55.6545 38.8551 56.8197 39.2935 57.6964L39.3303 57.7701L39.3502 57.85C39.5236 58.5432 40.2251 59.1852 41.1664 59.7024C42.2176 58.7135 42.9504 57.8301 43.6711 56.9129C43.4958 57.0933 43.3319 57.2655 43.177 57.4285C43.0512 57.5607 42.9313 57.6868 42.8158 57.8062C42.6195 58.009 42.4294 58.199 42.2546 58.3502C42.0972 58.4863 41.8775 58.6589 41.6242 58.7434L41.4353 58.8064L41.24 58.7673C40.3452 58.5883 39.6727 58.094 39.397 57.2669C39.1499 56.5257 39.2728 55.6551 39.5608 54.7808C40.0551 52.8478 41.5708 51.3367 43.8139 50.055C46.0718 48.7647 49.1837 47.6393 53.068 46.5295Z" stroke="#333B41" stroke-width="1.5"/>
<path d="M26.3596 28.3643C24.8834 27.8492 23.5975 27.4005 22.1588 27.1376C22.2081 27.3788 22.2565 27.6174 22.3044 27.8534C22.435 28.4962 22.5616 29.1198 22.6907 29.7246C22.6549 29.2771 22.6472 28.8382 22.6697 28.4123L22.7194 27.4666L23.6286 27.7318C26.9611 28.7037 29.6538 29.6903 31.6309 30.8047C33.3949 31.7989 34.6825 32.9473 35.2883 34.3665C34.4485 32.1059 32.2374 30.1686 27.9065 28.8948L27.8936 28.8911L27.8809 28.8868C27.3455 28.7083 26.8424 28.5328 26.3596 28.3643ZM25.6847 37.3306C25.1001 36.544 24.585 35.692 24.1531 34.809C24.7589 36.2532 25.5581 37.5474 26.7134 38.7026L26.7232 38.7124L26.7326 38.7226C27.369 39.4079 28.008 39.8995 28.6251 40.2466C27.5046 39.4579 26.5136 38.4458 25.6847 37.3306ZM35.4641 37.5153C35.8985 36.6464 35.911 35.8128 35.5015 34.9459C35.7846 35.7323 35.7967 36.5125 35.5112 37.1786C35.205 37.893 34.5926 38.3874 33.8288 38.5784L33.617 38.6313L33.4098 38.5623C33.3252 38.5341 33.2444 38.4969 33.1683 38.4549C33.3424 38.6533 33.5256 38.8554 33.7217 39.0632L33.7415 39.0582C34.7005 38.8185 35.2238 38.4027 35.4073 37.6688L35.4273 37.589L35.4641 37.5153Z" stroke="#333B41" stroke-width="1.5"/>
<path d="M50.7817 28.6737C50.4562 29.0623 50.1084 29.4326 49.7404 29.7774C49.9069 29.6377 50.0745 29.4847 50.2426 29.3173C50.4332 29.107 50.6125 28.8925 50.7817 28.6737ZM53.9904 19.4632C53.9931 19.4485 53.9958 19.4339 53.9985 19.4192C52.4669 19.7176 50.8898 20.1958 49.1138 20.8619L49.1138 20.862L49.1027 20.8659C45.6254 22.1078 43.7148 23.5081 42.8639 25.3821C43.4433 24.1925 44.4856 23.2211 45.9543 22.3774C47.6626 21.396 50.0171 20.5468 53.0761 19.7125L53.9904 19.4632ZM43.9138 29.1644C43.613 29.0641 43.3531 28.9107 43.14 28.7126C43.3282 29.0578 43.5877 29.3416 43.9505 29.5211C44.0559 29.4115 44.1572 29.304 44.2551 29.1981C44.2211 29.2012 44.1863 29.2028 44.1509 29.2028H44.0292L43.9138 29.1644Z" stroke="#333B41" stroke-width="1.5"/>
</svg>
